<mxfile host="app.diagrams.net" modified="2024-04-09T03:06:27.076Z" agent="Mozilla/5.0 (Windows NT 10.0; Win64; x64) AppleWebKit/537.36 (KHTML, like Gecko) Chrome/123.0.0.0 Safari/537.36" etag="B5UT1iPkiic1EhEU0eH3" version="24.2.2" type="google">
  <diagram name="PÃ¡gina-1" id="SvdmnD8ny3D3ry3X9NNe">
    <mxGraphModel grid="1" page="1" gridSize="10" guides="1" tooltips="1" connect="1" arrows="1" fold="1" pageScale="1" pageWidth="827" pageHeight="1169" math="0" shadow="0">
      <root>
        <mxCell id="0" />
        <mxCell id="1" parent="0" />
        <mxCell id="o0oH1-YP8zI91KcFzs_X-1" value="" style="rounded=0;whiteSpace=wrap;html=1;" vertex="1" parent="1">
          <mxGeometry x="133.5" y="220" width="190" height="70" as="geometry" />
        </mxCell>
        <mxCell id="o0oH1-YP8zI91KcFzs_X-22" value="" style="rounded=0;whiteSpace=wrap;html=1;" vertex="1" parent="1">
          <mxGeometry x="138" y="80" width="6" height="270" as="geometry" />
        </mxCell>
        <mxCell id="o0oH1-YP8zI91KcFzs_X-2" style="edgeStyle=orthogonalEdgeStyle;rounded=0;orthogonalLoop=1;jettySize=auto;html=1;entryX=-0.042;entryY=0.224;entryDx=0;entryDy=0;entryPerimeter=0;exitX=0.033;exitY=1.001;exitDx=0;exitDy=0;exitPerimeter=0;" edge="1" parent="1" source="o0oH1-YP8zI91KcFzs_X-5" target="o0oH1-YP8zI91KcFzs_X-8">
          <mxGeometry relative="1" as="geometry">
            <mxPoint x="136.8" y="160" as="sourcePoint" />
            <mxPoint x="320.18" y="161.39499999999998" as="targetPoint" />
            <Array as="points">
              <mxPoint x="327" y="150" />
            </Array>
          </mxGeometry>
        </mxCell>
        <mxCell id="o0oH1-YP8zI91KcFzs_X-5" value="personalizar_unidad_medida()" style="text;html=1;align=center;verticalAlign=middle;resizable=0;points=[];autosize=1;strokeColor=none;fillColor=none;rotation=0;" vertex="1" parent="1">
          <mxGeometry x="138" y="120" width="190" height="30" as="geometry" />
        </mxCell>
        <mxCell id="o0oH1-YP8zI91KcFzs_X-8" value="" style="rounded=0;whiteSpace=wrap;html=1;" vertex="1" parent="1">
          <mxGeometry x="327.5" y="95" width="5" height="245" as="geometry" />
        </mxCell>
        <mxCell id="o0oH1-YP8zI91KcFzs_X-13" value="" style="rounded=0;whiteSpace=wrap;html=1;" vertex="1" parent="1">
          <mxGeometry x="133.5" y="220" width="30" height="20" as="geometry" />
        </mxCell>
        <mxCell id="o0oH1-YP8zI91KcFzs_X-14" value="ALT" style="text;html=1;align=center;verticalAlign=middle;resizable=0;points=[];autosize=1;strokeColor=none;fillColor=none;" vertex="1" parent="1">
          <mxGeometry x="128.5" y="215" width="40" height="30" as="geometry" />
        </mxCell>
        <mxCell id="o0oH1-YP8zI91KcFzs_X-15" value="mostrar_mensaje_error()" style="html=1;verticalAlign=bottom;endArrow=open;dashed=1;endSize=8;curved=0;rounded=0;entryX=0.76;entryY=0.61;entryDx=0;entryDy=0;entryPerimeter=0;" edge="1" parent="1">
          <mxGeometry relative="1" as="geometry">
            <mxPoint x="330" y="261" as="sourcePoint" />
            <mxPoint x="142.3" y="260.8" as="targetPoint" />
          </mxGeometry>
        </mxCell>
        <mxCell id="o0oH1-YP8zI91KcFzs_X-17" value="Cliente" style="rounded=0;whiteSpace=wrap;html=1;" vertex="1" parent="1">
          <mxGeometry x="101" y="40" width="80" height="40" as="geometry" />
        </mxCell>
        <mxCell id="o0oH1-YP8zI91KcFzs_X-18" value="Usuario" style="rounded=0;whiteSpace=wrap;html=1;" vertex="1" parent="1">
          <mxGeometry x="290" y="40" width="80" height="40" as="geometry" />
        </mxCell>
        <mxCell id="o0oH1-YP8zI91KcFzs_X-21" value="" style="endArrow=none;dashed=1;html=1;rounded=0;exitX=0.5;exitY=0;exitDx=0;exitDy=0;entryX=0.5;entryY=1;entryDx=0;entryDy=0;" edge="1" parent="1" source="o0oH1-YP8zI91KcFzs_X-8" target="o0oH1-YP8zI91KcFzs_X-18">
          <mxGeometry width="50" height="50" relative="1" as="geometry">
            <mxPoint x="253.5" y="130" as="sourcePoint" />
            <mxPoint x="303.5" y="80" as="targetPoint" />
          </mxGeometry>
        </mxCell>
        <mxCell id="o0oH1-YP8zI91KcFzs_X-23" value="conversion_unidad_medida()" style="html=1;verticalAlign=bottom;endArrow=open;dashed=1;endSize=8;curved=0;rounded=0;entryX=0.956;entryY=0.409;entryDx=0;entryDy=0;entryPerimeter=0;exitX=-0.193;exitY=0.392;exitDx=0;exitDy=0;exitPerimeter=0;" edge="1" parent="1" source="o0oH1-YP8zI91KcFzs_X-8" target="o0oH1-YP8zI91KcFzs_X-22">
          <mxGeometry relative="1" as="geometry">
            <mxPoint x="323.5" y="190" as="sourcePoint" />
            <mxPoint x="243.5" y="190" as="targetPoint" />
          </mxGeometry>
        </mxCell>
      </root>
    </mxGraphModel>
  </diagram>
</mxfile>
